<?xml version="1.0" encoding="UTF-8" standalone="no"?>
<svg
   id="Livello_2"
   data-name="Livello 2"
   viewBox="0 0 198.2 204.4"
   version="1.1"
   sodipodi:docname="feedo_logo_circle.svg"
   inkscape:version="1.3.2 (091e20ef0f, 2023-11-25)"
   xmlns:inkscape="http://www.inkscape.org/namespaces/inkscape"
   xmlns:sodipodi="http://sodipodi.sourceforge.net/DTD/sodipodi-0.dtd"
   xmlns="http://www.w3.org/2000/svg"
   xmlns:svg="http://www.w3.org/2000/svg">
  <sodipodi:namedview
     id="namedview9"
     pagecolor="#000000"
     bordercolor="#000000"
     borderopacity="0.25"
     inkscape:showpageshadow="2"
     inkscape:pageopacity="0.0"
     inkscape:pagecheckerboard="0"
     inkscape:deskcolor="#d1d1d1"
     inkscape:zoom="2.8498044"
     inkscape:cx="80.180942"
     inkscape:cy="126.49991"
     inkscape:window-width="2560"
     inkscape:window-height="1371"
     inkscape:window-x="0"
     inkscape:window-y="0"
     inkscape:window-maximized="1"
     inkscape:current-layer="Livello_2" />
  <defs
     id="defs1">
    <style
       id="style1">
      .cls-1 {
        fill: #000;
        stroke-width: 2.61px;
      }

      .cls-1, .cls-2, .cls-3 {
        stroke: #000;
        stroke-linecap: round;
        stroke-miterlimit: 10;
      }

      .cls-2 {
        stroke-width: 2.69px;
      }

      .cls-2, .cls-3 {
        fill: none;
      }

      .cls-3 {
        stroke-width: 3px;
      }
    </style>
  </defs>
  <circle
     style="fill:#ffffff;fill-opacity:1;fill-rule:evenodd;stroke-width:0;stroke-opacity:0;paint-order:fill markers stroke"
     id="path10"
     cx="99.099998"
     cy="102.2"
     r="98.562683" />
  <g
     id="g1"
     transform="translate(-1.1596642,-2.2424241)">
    <path
       class="cls-3"
       d="m 165.45266,106.43866 c 0,36.00701 -29.19326,72.7191 -65.19294,72.7191 -35.999797,0 -65.193003,-36.71209 -65.193003,-72.7191 0,-36.006943 29.185783,-65.192561 65.193003,-65.192561 36.00715,0 65.19294,29.185618 65.19294,65.192561 z"
       id="path1"
       style="opacity:1;stroke:#181818;stroke-opacity:1" />
    <path
       class="cls-1"
       d="m 89.778927,114.32892 c -6.056867,1.8557 -5.099343,7.6304 -1.989265,11.93546 6.13109,8.96649 15.320378,11.18592 22.987918,2.27133 7.10344,-7.96441 5.73766,-14.39979 -5.01033,-15.08262 -5.03248,-0.26738 -11.289812,-0.52703 -15.862134,0.83127 l 1.823347,-0.44362 z"
       id="path2"
       style="display:inline;opacity:1;fill:#191919;fill-opacity:1;stroke:#181818;stroke-opacity:1"
       sodipodi:nodetypes="ccccccc" />
    <g
       id="g5"
       style="display:inline;opacity:1"
       transform="matrix(0.74226311,0,0,0.74225881,26.701412,28.560896)">
      <g
         id="g4">
        <path
           class="cls-3"
           d="m 99.1,143.12 c -0.35,7.52 -5.77,14.15 -12.47,17.56 -1.82,0.93 -3.72,1.65 -5.67,2.2 -5.24,1.49 -10.87,1.75 -16.34,1.44 -6.38,-0.36 -13.09,-1.6 -17.9,-5.82 -4.83,-4.23 -6.98,-11.11 -6.05,-17.47 0.93,-6.35 4.73,-12.11 9.83,-16.02"
           id="path3"
           style="stroke:#181818;stroke-opacity:1" />
        <path
           class="cls-3"
           d="m 99.1,143.12 c 0.35,7.52 5.77,14.15 12.48,17.56 2,1.02 4.09,1.79 6.24,2.36 5.08,1.35 10.49,1.57 15.77,1.28 6.38,-0.36 13.09,-1.6 17.89,-5.82 4.83,-4.23 6.99,-11.11 6.05,-17.47 -0.93,-6.35 -4.73,-12.11 -9.83,-16.02"
           id="path4"
           style="stroke:#181818;stroke-opacity:1" />
      </g>
      <path
         class="cls-3"
         d="m 117.83,163.84 c 0,11.87 -8.26,21.49 -18.45,21.49 -10.19,0 -18.44,-9.62 -18.44,-21.49 0,-0.32 0,-0.64 0.02,-0.96 1.95,-0.55 3.85,-1.27 5.67,-2.2 6.7,-3.41 12.12,-10.04 12.47,-17.56 0.35,7.52 5.77,14.15 12.48,17.56 2,1.02 4.09,1.79 6.24,2.36 0.01,0.27 0.01,0.53 0.01,0.8 z"
         id="path5"
         style="stroke:#181818;stroke-opacity:1" />
      <line
         class="cls-3"
         x1="99.099998"
         y1="143.12"
         x2="99.099998"
         y2="171.78999"
         id="line5"
         style="stroke:#181818;stroke-opacity:1" />
    </g>
    <ellipse
       class="cls-2"
       cx="71.274284"
       cy="97.175217"
       rx="21.540468"
       ry="15.476097"
       id="ellipse5"
       style="opacity:1;stroke:#181818;stroke-opacity:1" />
    <path
       class="cls-1"
       d="m 67.718869,97.175207 c 0,5.418523 -3.911724,10.948413 -8.736432,10.948413 -4.824712,0 -8.73644,-5.52989 -8.73644,-10.948413 0,-5.418389 3.911728,-11.118942 8.73644,-11.118942 4.824708,0 8.736432,5.700553 8.736432,11.118942 z"
       id="path6"
       style="opacity:1;fill:#191919;fill-opacity:1;stroke:#181818;stroke-opacity:1" />
    <ellipse
       class="cls-2"
       cx="129.24509"
       cy="97.227188"
       rx="21.540468"
       ry="15.476097"
       id="ellipse6"
       style="opacity:1;stroke:#181818;stroke-opacity:1" />
    <path
       class="cls-1"
       d="m 132.80792,97.22719 c 0,5.41852 3.91169,10.94838 8.7365,10.94838 4.82466,0 8.73637,-5.52986 8.73637,-10.94838 0,-5.418422 -3.91171,-11.118971 -8.73637,-11.118971 -4.82481,0 -8.7365,5.700549 -8.7365,11.118971 z"
       id="path7"
       style="opacity:1;fill:#191919;fill-opacity:1;stroke:#181818;stroke-opacity:1" />
    <path
       class="cls-1"
       d="m 31.095611,55.178298 c -8.291082,9.456378 -0.08168,15.758154 9.389628,18.526781 9.389627,2.479145 24.50953,8.380102 32.429474,0.660608 5.93068,-5.79704 6.420576,-16.463296 6.59872,-24.650412 0.02231,-5.314575 -0.178144,-12.417993 -2.53854,-16.478149 -4.973163,-8.357833 -15.015985,-0.4602 -20.723985,3.162025 -3.317914,2.21193 -6.620988,4.453556 -9.901792,6.732287 -5.232952,3.763256 -10.807347,7.192486 -15.17186,11.950368 z"
       id="path8"
       style="opacity:1;fill:#191919;fill-opacity:1;stroke:#181818;stroke-opacity:1" />
    <path
       class="cls-1"
       d="m 169.42378,55.178298 c 8.29113,9.456378 0.0812,15.758154 -9.38968,18.526781 -9.38961,2.479145 -24.50952,8.380102 -32.42944,0.660608 -5.93068,-5.79704 -6.42057,-16.463296 -6.59871,-24.650412 -0.0221,-5.314575 0.17814,-12.417993 2.53849,-16.478149 4.97319,-8.357833 15.016,-0.4602 20.72398,3.162025 3.31799,2.21193 6.62109,4.453556 9.90184,6.732287 5.23294,3.763256 10.80733,7.192486 15.17186,11.950368 z"
       id="path9"
       style="opacity:1;fill:#191919;fill-opacity:1;stroke:#181818;stroke-opacity:1" />
  </g>
</svg>
